<?xml version="1.0" standalone="no"?>
<!DOCTYPE svg PUBLIC "-//W3C//DTD SVG 20010904//EN"
 "http://www.w3.org/TR/2001/REC-SVG-20010904/DTD/svg10.dtd">
<svg version="1.0" xmlns="http://www.w3.org/2000/svg"
 width="512.000000pt" height="512.000000pt" viewBox="0 0 512.000000 512.000000"
 preserveAspectRatio="xMidYMid meet">

<g transform="translate(0.000000,512.000000) scale(0.100000,-0.100000)"
fill="#000000" stroke="none">
<path d="M470 5104 c-221 -47 -408 -236 -455 -459 -22 -105 -22 -4065 0 -4170
47 -225 235 -413 460 -460 105 -22 4065 -22 4170 0 225 47 413 235 460 460 13
60 15 340 15 1990 l0 1920 -368 368 -367 367 -1925 -1 c-1611 0 -1936 -3
-1990 -15z m330 -1174 l0 -790 1550 0 1550 0 0 790 0 790 158 0 157 0 253
-253 252 -252 -2 -1841 -3 -1840 -25 -37 c-14 -21 -43 -50 -64 -65 -37 -26
-46 -27 -173 -30 l-133 -4 0 991 0 991 -1760 0 -1760 0 0 -991 0 -991 -133 4
c-127 3 -136 4 -173 30 -21 15 -50 44 -64 65 l-25 37 -3 2004 c-1 1338 1 2017
8 2042 12 46 80 116 124 129 17 5 84 10 149 10 l117 1 0 -790z m2700 200 l0
-590 -1150 0 -1150 0 0 590 0 590 1150 0 1150 0 0 -590z m420 -2940 l0 -790
-1360 0 -1360 0 0 790 0 790 1360 0 1360 0 0 -790z"/>
<path d="M2740 4135 l0 -395 200 0 200 0 0 395 0 395 -200 0 -200 0 0 -395z"/>
</g>
</svg>
