<?xml version="1.0" standalone="no"?>
<!DOCTYPE svg PUBLIC "-//W3C//DTD SVG 20010904//EN"
 "http://www.w3.org/TR/2001/REC-SVG-20010904/DTD/svg10.dtd">
<svg version="1.0" xmlns="http://www.w3.org/2000/svg"
 width="512.000000pt" height="512.000000pt" viewBox="0 0 512.000000 512.000000"
 preserveAspectRatio="xMidYMid meet">

<g transform="translate(0.000000,512.000000) scale(0.100000,-0.100000)"
fill="#000000" stroke="none">
<path d="M3210 4306 c-280 -60 -505 -252 -599 -511 -17 -47 -31 -92 -31 -100
0 -13 -140 -15 -999 -17 -992 -3 -1000 -3 -1027 -24 -53 -39 -69 -71 -69 -134
0 -63 16 -95 69 -134 27 -21 35 -21 1024 -24 l997 -3 29 -89 c157 -493 755
-704 1189 -421 150 98 270 254 323 421 l29 89 197 3 c215 3 223 5 272 72 29
39 29 133 0 172 -49 67 -57 69 -272 72 l-197 3 -29 89 c-83 259 -290 451 -566
527 -78 21 -260 26 -340 9z m265 -321 c256 -67 415 -329 350 -578 -45 -173
-178 -307 -350 -352 -250 -65 -513 94 -580 350 -89 342 238 669 580 580z"/>
<path d="M1610 2386 c-280 -60 -505 -252 -599 -511 -17 -47 -31 -92 -31 -100
0 -11 -37 -14 -199 -17 -219 -3 -226 -5 -275 -72 -29 -39 -29 -133 0 -172 49
-67 57 -69 272 -72 l197 -3 29 -89 c158 -493 755 -704 1189 -421 150 99 270
254 323 421 l29 89 997 3 c989 3 997 3 1024 24 53 39 69 71 69 134 0 63 -16
95 -69 134 -27 21 -35 21 -1024 24 l-997 3 -29 89 c-82 258 -289 451 -566 527
-78 21 -260 26 -340 9z m265 -321 c256 -67 415 -329 350 -578 -45 -173 -178
-307 -350 -352 -250 -65 -513 94 -580 350 -89 342 238 669 580 580z"/>
</g>
</svg>
